<?xml version="1.0"?><svg xmlns="http://www.w3.org/2000/svg" width="380" height="432"><rect x="0" y="0" width="100%" height="100%" fill="rgb(116, 185, 255)" /><path d="M0 53 C 66.5 0, 124 0, 190 53 S 314 106, 380 53 S 504 0, 570, 53" fill="none" stroke="#ddd" style="opacity:0.14133333333333;stroke-width:12px;" transform="translate(-95, -79.5)" /><path d="M0 53 C 66.5 0, 124 0, 190 53 S 314 106, 380 53 S 504 0, 570, 53" fill="none" stroke="#ddd" style="opacity:0.14133333333333;stroke-width:12px;" transform="translate(-95, 352.5)" /><path d="M0 53 C 66.5 0, 124 0, 190 53 S 314 106, 380 53 S 504 0, 570, 53" fill="none" stroke="#222" style="opacity:0.063333333333333;stroke-width:12px;" transform="translate(-95, -67.5)" /><path d="M0 53 C 66.5 0, 124 0, 190 53 S 314 106, 380 53 S 504 0, 570, 53" fill="none" stroke="#222" style="opacity:0.063333333333333;stroke-width:12px;" transform="translate(-95, 364.5)" /><path d="M0 53 C 66.5 0, 124 0, 190 53 S 314 106, 380 53 S 504 0, 570, 53" fill="none" stroke="#222" style="opacity:0.063333333333333;stroke-width:12px;" transform="translate(-95, -55.5)" /><path d="M0 53 C 66.5 0, 124 0, 190 53 S 314 106, 380 53 S 504 0, 570, 53" fill="none" stroke="#222" style="opacity:0.063333333333333;stroke-width:12px;" transform="translate(-95, 376.5)" /><path d="M0 53 C 66.5 0, 124 0, 190 53 S 314 106, 380 53 S 504 0, 570, 53" fill="none" stroke="#222" style="opacity:0.080666666666667;stroke-width:12px;" transform="translate(-95, -43.5)" /><path d="M0 53 C 66.5 0, 124 0, 190 53 S 314 106, 380 53 S 504 0, 570, 53" fill="none" stroke="#222" style="opacity:0.080666666666667;stroke-width:12px;" transform="translate(-95, 388.5)" /><path d="M0 53 C 66.5 0, 124 0, 190 53 S 314 106, 380 53 S 504 0, 570, 53" fill="none" stroke="#222" style="opacity:0.11533333333333;stroke-width:12px;" transform="translate(-95, -31.5)" /><path d="M0 53 C 66.5 0, 124 0, 190 53 S 314 106, 380 53 S 504 0, 570, 53" fill="none" stroke="#222" style="opacity:0.11533333333333;stroke-width:12px;" transform="translate(-95, 400.5)" /><path d="M0 53 C 66.5 0, 124 0, 190 53 S 314 106, 380 53 S 504 0, 570, 53" fill="none" stroke="#222" style="opacity:0.063333333333333;stroke-width:12px;" transform="translate(-95, -19.5)" /><path d="M0 53 C 66.5 0, 124 0, 190 53 S 314 106, 380 53 S 504 0, 570, 53" fill="none" stroke="#222" style="opacity:0.063333333333333;stroke-width:12px;" transform="translate(-95, 412.5)" /><path d="M0 53 C 66.5 0, 124 0, 190 53 S 314 106, 380 53 S 504 0, 570, 53" fill="none" stroke="#222" style="opacity:0.15;stroke-width:12px;" transform="translate(-95, -7.5)" /><path d="M0 53 C 66.5 0, 124 0, 190 53 S 314 106, 380 53 S 504 0, 570, 53" fill="none" stroke="#222" style="opacity:0.15;stroke-width:12px;" transform="translate(-95, 424.5)" /><path d="M0 53 C 66.5 0, 124 0, 190 53 S 314 106, 380 53 S 504 0, 570, 53" fill="none" stroke="#222" style="opacity:0.063333333333333;stroke-width:12px;" transform="translate(-95, 4.5)" /><path d="M0 53 C 66.5 0, 124 0, 190 53 S 314 106, 380 53 S 504 0, 570, 53" fill="none" stroke="#222" style="opacity:0.063333333333333;stroke-width:12px;" transform="translate(-95, 436.5)" /><path d="M0 53 C 66.5 0, 124 0, 190 53 S 314 106, 380 53 S 504 0, 570, 53" fill="none" stroke="#222" style="opacity:0.13266666666667;stroke-width:12px;" transform="translate(-95, 16.5)" /><path d="M0 53 C 66.5 0, 124 0, 190 53 S 314 106, 380 53 S 504 0, 570, 53" fill="none" stroke="#222" style="opacity:0.13266666666667;stroke-width:12px;" transform="translate(-95, 448.5)" /><path d="M0 53 C 66.5 0, 124 0, 190 53 S 314 106, 380 53 S 504 0, 570, 53" fill="none" stroke="#ddd" style="opacity:0.124;stroke-width:12px;" transform="translate(-95, 28.5)" /><path d="M0 53 C 66.5 0, 124 0, 190 53 S 314 106, 380 53 S 504 0, 570, 53" fill="none" stroke="#ddd" style="opacity:0.124;stroke-width:12px;" transform="translate(-95, 460.5)" /><path d="M0 53 C 66.5 0, 124 0, 190 53 S 314 106, 380 53 S 504 0, 570, 53" fill="none" stroke="#ddd" style="opacity:0.089333333333333;stroke-width:12px;" transform="translate(-95, 40.5)" /><path d="M0 53 C 66.5 0, 124 0, 190 53 S 314 106, 380 53 S 504 0, 570, 53" fill="none" stroke="#ddd" style="opacity:0.089333333333333;stroke-width:12px;" transform="translate(-95, 472.5)" /><path d="M0 53 C 66.5 0, 124 0, 190 53 S 314 106, 380 53 S 504 0, 570, 53" fill="none" stroke="#ddd" style="opacity:0.14133333333333;stroke-width:12px;" transform="translate(-95, 52.5)" /><path d="M0 53 C 66.5 0, 124 0, 190 53 S 314 106, 380 53 S 504 0, 570, 53" fill="none" stroke="#ddd" style="opacity:0.14133333333333;stroke-width:12px;" transform="translate(-95, 484.5)" /><path d="M0 53 C 66.5 0, 124 0, 190 53 S 314 106, 380 53 S 504 0, 570, 53" fill="none" stroke="#ddd" style="opacity:0.124;stroke-width:12px;" transform="translate(-95, 64.5)" /><path d="M0 53 C 66.5 0, 124 0, 190 53 S 314 106, 380 53 S 504 0, 570, 53" fill="none" stroke="#ddd" style="opacity:0.124;stroke-width:12px;" transform="translate(-95, 496.5)" /><path d="M0 53 C 66.5 0, 124 0, 190 53 S 314 106, 380 53 S 504 0, 570, 53" fill="none" stroke="#ddd" style="opacity:0.124;stroke-width:12px;" transform="translate(-95, 76.5)" /><path d="M0 53 C 66.5 0, 124 0, 190 53 S 314 106, 380 53 S 504 0, 570, 53" fill="none" stroke="#ddd" style="opacity:0.124;stroke-width:12px;" transform="translate(-95, 508.5)" /><path d="M0 53 C 66.5 0, 124 0, 190 53 S 314 106, 380 53 S 504 0, 570, 53" fill="none" stroke="#ddd" style="opacity:0.02;stroke-width:12px;" transform="translate(-95, 88.5)" /><path d="M0 53 C 66.5 0, 124 0, 190 53 S 314 106, 380 53 S 504 0, 570, 53" fill="none" stroke="#ddd" style="opacity:0.02;stroke-width:12px;" transform="translate(-95, 520.5)" /><path d="M0 53 C 66.5 0, 124 0, 190 53 S 314 106, 380 53 S 504 0, 570, 53" fill="none" stroke="#222" style="opacity:0.080666666666667;stroke-width:12px;" transform="translate(-95, 100.5)" /><path d="M0 53 C 66.5 0, 124 0, 190 53 S 314 106, 380 53 S 504 0, 570, 53" fill="none" stroke="#222" style="opacity:0.080666666666667;stroke-width:12px;" transform="translate(-95, 532.5)" /><path d="M0 53 C 66.5 0, 124 0, 190 53 S 314 106, 380 53 S 504 0, 570, 53" fill="none" stroke="#ddd" style="opacity:0.02;stroke-width:12px;" transform="translate(-95, 112.5)" /><path d="M0 53 C 66.5 0, 124 0, 190 53 S 314 106, 380 53 S 504 0, 570, 53" fill="none" stroke="#ddd" style="opacity:0.02;stroke-width:12px;" transform="translate(-95, 544.5)" /><path d="M0 53 C 66.5 0, 124 0, 190 53 S 314 106, 380 53 S 504 0, 570, 53" fill="none" stroke="#ddd" style="opacity:0.02;stroke-width:12px;" transform="translate(-95, 124.5)" /><path d="M0 53 C 66.5 0, 124 0, 190 53 S 314 106, 380 53 S 504 0, 570, 53" fill="none" stroke="#ddd" style="opacity:0.02;stroke-width:12px;" transform="translate(-95, 556.5)" /><path d="M0 53 C 66.5 0, 124 0, 190 53 S 314 106, 380 53 S 504 0, 570, 53" fill="none" stroke="#222" style="opacity:0.13266666666667;stroke-width:12px;" transform="translate(-95, 136.5)" /><path d="M0 53 C 66.5 0, 124 0, 190 53 S 314 106, 380 53 S 504 0, 570, 53" fill="none" stroke="#222" style="opacity:0.13266666666667;stroke-width:12px;" transform="translate(-95, 568.5)" /><path d="M0 53 C 66.5 0, 124 0, 190 53 S 314 106, 380 53 S 504 0, 570, 53" fill="none" stroke="#ddd" style="opacity:0.10666666666667;stroke-width:12px;" transform="translate(-95, 148.5)" /><path d="M0 53 C 66.5 0, 124 0, 190 53 S 314 106, 380 53 S 504 0, 570, 53" fill="none" stroke="#ddd" style="opacity:0.10666666666667;stroke-width:12px;" transform="translate(-95, 580.5)" /><path d="M0 53 C 66.5 0, 124 0, 190 53 S 314 106, 380 53 S 504 0, 570, 53" fill="none" stroke="#ddd" style="opacity:0.054666666666667;stroke-width:12px;" transform="translate(-95, 160.5)" /><path d="M0 53 C 66.5 0, 124 0, 190 53 S 314 106, 380 53 S 504 0, 570, 53" fill="none" stroke="#ddd" style="opacity:0.054666666666667;stroke-width:12px;" transform="translate(-95, 592.5)" /><path d="M0 53 C 66.5 0, 124 0, 190 53 S 314 106, 380 53 S 504 0, 570, 53" fill="none" stroke="#222" style="opacity:0.15;stroke-width:12px;" transform="translate(-95, 172.5)" /><path d="M0 53 C 66.5 0, 124 0, 190 53 S 314 106, 380 53 S 504 0, 570, 53" fill="none" stroke="#222" style="opacity:0.15;stroke-width:12px;" transform="translate(-95, 604.5)" /><path d="M0 53 C 66.5 0, 124 0, 190 53 S 314 106, 380 53 S 504 0, 570, 53" fill="none" stroke="#ddd" style="opacity:0.14133333333333;stroke-width:12px;" transform="translate(-95, 184.5)" /><path d="M0 53 C 66.5 0, 124 0, 190 53 S 314 106, 380 53 S 504 0, 570, 53" fill="none" stroke="#ddd" style="opacity:0.14133333333333;stroke-width:12px;" transform="translate(-95, 616.5)" /><path d="M0 53 C 66.5 0, 124 0, 190 53 S 314 106, 380 53 S 504 0, 570, 53" fill="none" stroke="#222" style="opacity:0.15;stroke-width:12px;" transform="translate(-95, 196.5)" /><path d="M0 53 C 66.5 0, 124 0, 190 53 S 314 106, 380 53 S 504 0, 570, 53" fill="none" stroke="#222" style="opacity:0.15;stroke-width:12px;" transform="translate(-95, 628.5)" /><path d="M0 53 C 66.5 0, 124 0, 190 53 S 314 106, 380 53 S 504 0, 570, 53" fill="none" stroke="#ddd" style="opacity:0.072;stroke-width:12px;" transform="translate(-95, 208.5)" /><path d="M0 53 C 66.5 0, 124 0, 190 53 S 314 106, 380 53 S 504 0, 570, 53" fill="none" stroke="#ddd" style="opacity:0.072;stroke-width:12px;" transform="translate(-95, 640.5)" /><path d="M0 53 C 66.5 0, 124 0, 190 53 S 314 106, 380 53 S 504 0, 570, 53" fill="none" stroke="#ddd" style="opacity:0.10666666666667;stroke-width:12px;" transform="translate(-95, 220.5)" /><path d="M0 53 C 66.5 0, 124 0, 190 53 S 314 106, 380 53 S 504 0, 570, 53" fill="none" stroke="#ddd" style="opacity:0.10666666666667;stroke-width:12px;" transform="translate(-95, 652.5)" /><path d="M0 53 C 66.5 0, 124 0, 190 53 S 314 106, 380 53 S 504 0, 570, 53" fill="none" stroke="#ddd" style="opacity:0.037333333333333;stroke-width:12px;" transform="translate(-95, 232.5)" /><path d="M0 53 C 66.5 0, 124 0, 190 53 S 314 106, 380 53 S 504 0, 570, 53" fill="none" stroke="#ddd" style="opacity:0.037333333333333;stroke-width:12px;" transform="translate(-95, 664.5)" /><path d="M0 53 C 66.5 0, 124 0, 190 53 S 314 106, 380 53 S 504 0, 570, 53" fill="none" stroke="#222" style="opacity:0.080666666666667;stroke-width:12px;" transform="translate(-95, 244.5)" /><path d="M0 53 C 66.5 0, 124 0, 190 53 S 314 106, 380 53 S 504 0, 570, 53" fill="none" stroke="#222" style="opacity:0.080666666666667;stroke-width:12px;" transform="translate(-95, 676.5)" /><path d="M0 53 C 66.5 0, 124 0, 190 53 S 314 106, 380 53 S 504 0, 570, 53" fill="none" stroke="#222" style="opacity:0.080666666666667;stroke-width:12px;" transform="translate(-95, 256.5)" /><path d="M0 53 C 66.5 0, 124 0, 190 53 S 314 106, 380 53 S 504 0, 570, 53" fill="none" stroke="#222" style="opacity:0.080666666666667;stroke-width:12px;" transform="translate(-95, 688.5)" /><path d="M0 53 C 66.5 0, 124 0, 190 53 S 314 106, 380 53 S 504 0, 570, 53" fill="none" stroke="#222" style="opacity:0.080666666666667;stroke-width:12px;" transform="translate(-95, 268.5)" /><path d="M0 53 C 66.5 0, 124 0, 190 53 S 314 106, 380 53 S 504 0, 570, 53" fill="none" stroke="#222" style="opacity:0.080666666666667;stroke-width:12px;" transform="translate(-95, 700.5)" /><path d="M0 53 C 66.5 0, 124 0, 190 53 S 314 106, 380 53 S 504 0, 570, 53" fill="none" stroke="#ddd" style="opacity:0.02;stroke-width:12px;" transform="translate(-95, 280.5)" /><path d="M0 53 C 66.5 0, 124 0, 190 53 S 314 106, 380 53 S 504 0, 570, 53" fill="none" stroke="#ddd" style="opacity:0.02;stroke-width:12px;" transform="translate(-95, 712.5)" /><path d="M0 53 C 66.5 0, 124 0, 190 53 S 314 106, 380 53 S 504 0, 570, 53" fill="none" stroke="#ddd" style="opacity:0.10666666666667;stroke-width:12px;" transform="translate(-95, 292.5)" /><path d="M0 53 C 66.5 0, 124 0, 190 53 S 314 106, 380 53 S 504 0, 570, 53" fill="none" stroke="#ddd" style="opacity:0.10666666666667;stroke-width:12px;" transform="translate(-95, 724.5)" /><path d="M0 53 C 66.5 0, 124 0, 190 53 S 314 106, 380 53 S 504 0, 570, 53" fill="none" stroke="#ddd" style="opacity:0.124;stroke-width:12px;" transform="translate(-95, 304.5)" /><path d="M0 53 C 66.5 0, 124 0, 190 53 S 314 106, 380 53 S 504 0, 570, 53" fill="none" stroke="#ddd" style="opacity:0.124;stroke-width:12px;" transform="translate(-95, 736.5)" /><path d="M0 53 C 66.5 0, 124 0, 190 53 S 314 106, 380 53 S 504 0, 570, 53" fill="none" stroke="#ddd" style="opacity:0.124;stroke-width:12px;" transform="translate(-95, 316.5)" /><path d="M0 53 C 66.5 0, 124 0, 190 53 S 314 106, 380 53 S 504 0, 570, 53" fill="none" stroke="#ddd" style="opacity:0.124;stroke-width:12px;" transform="translate(-95, 748.5)" /><path d="M0 53 C 66.5 0, 124 0, 190 53 S 314 106, 380 53 S 504 0, 570, 53" fill="none" stroke="#222" style="opacity:0.063333333333333;stroke-width:12px;" transform="translate(-95, 328.5)" /><path d="M0 53 C 66.5 0, 124 0, 190 53 S 314 106, 380 53 S 504 0, 570, 53" fill="none" stroke="#222" style="opacity:0.063333333333333;stroke-width:12px;" transform="translate(-95, 760.5)" /><path d="M0 53 C 66.5 0, 124 0, 190 53 S 314 106, 380 53 S 504 0, 570, 53" fill="none" stroke="#ddd" style="opacity:0.10666666666667;stroke-width:12px;" transform="translate(-95, 340.5)" /><path d="M0 53 C 66.5 0, 124 0, 190 53 S 314 106, 380 53 S 504 0, 570, 53" fill="none" stroke="#ddd" style="opacity:0.10666666666667;stroke-width:12px;" transform="translate(-95, 772.5)" /></svg>