<?xml version="1.0"?><svg xmlns="http://www.w3.org/2000/svg" width="96" height="168"><rect x="0" y="0" width="100%" height="100%" fill="rgb(108, 92, 231)" /><polyline points="16.166666666667, 0, 32.333333333333, 28.001488055697, 0, 28.001488055697, 16.166666666667, 0" fill="#ddd" fill-opacity="0.054666666666667" stroke="#000" stroke-opacity="0.02" transform="translate(-16.166666666667, 0) rotate(180, 16.166666666667, 14.000744027848)" /><polyline points="16.166666666667, 0, 32.333333333333, 28.001488055697, 0, 28.001488055697, 16.166666666667, 0" fill="#ddd" fill-opacity="0.054666666666667" stroke="#000" stroke-opacity="0.02" transform="translate(80.833333333333, 0) rotate(180, 16.166666666667, 14.000744027848)" /><polyline points="16.166666666667, 0, 32.333333333333, 28.001488055697, 0, 28.001488055697, 16.166666666667, 0" fill="#222" fill-opacity="0.046" stroke="#000" stroke-opacity="0.02" transform="translate(0, 0) rotate(0, 16.166666666667, 14.000744027848)" /><polyline points="16.166666666667, 0, 32.333333333333, 28.001488055697, 0, 28.001488055697, 16.166666666667, 0" fill="#ddd" fill-opacity="0.037333333333333" stroke="#000" stroke-opacity="0.02" transform="translate(16.166666666667, 0) rotate(180, 16.166666666667, 14.000744027848)" /><polyline points="16.166666666667, 0, 32.333333333333, 28.001488055697, 0, 28.001488055697, 16.166666666667, 0" fill="#222" fill-opacity="0.046" stroke="#000" stroke-opacity="0.02" transform="translate(32.333333333333, 0) rotate(0, 16.166666666667, 14.000744027848)" /><polyline points="16.166666666667, 0, 32.333333333333, 28.001488055697, 0, 28.001488055697, 16.166666666667, 0" fill="#222" fill-opacity="0.11533333333333" stroke="#000" stroke-opacity="0.02" transform="translate(48.5, 0) rotate(180, 16.166666666667, 14.000744027848)" /><polyline points="16.166666666667, 0, 32.333333333333, 28.001488055697, 0, 28.001488055697, 16.166666666667, 0" fill="#222" fill-opacity="0.15" stroke="#000" stroke-opacity="0.02" transform="translate(64.666666666667, 0) rotate(0, 16.166666666667, 14.000744027848)" /><polyline points="16.166666666667, 0, 32.333333333333, 28.001488055697, 0, 28.001488055697, 16.166666666667, 0" fill="#222" fill-opacity="0.080666666666667" stroke="#000" stroke-opacity="0.02" transform="translate(-16.166666666667, 28.001488055697) rotate(0, 16.166666666667, 14.000744027848)" /><polyline points="16.166666666667, 0, 32.333333333333, 28.001488055697, 0, 28.001488055697, 16.166666666667, 0" fill="#222" fill-opacity="0.080666666666667" stroke="#000" stroke-opacity="0.02" transform="translate(80.833333333333, 28.001488055697) rotate(0, 16.166666666667, 14.000744027848)" /><polyline points="16.166666666667, 0, 32.333333333333, 28.001488055697, 0, 28.001488055697, 16.166666666667, 0" fill="#222" fill-opacity="0.080666666666667" stroke="#000" stroke-opacity="0.02" transform="translate(0, 28.001488055697) rotate(180, 16.166666666667, 14.000744027848)" /><polyline points="16.166666666667, 0, 32.333333333333, 28.001488055697, 0, 28.001488055697, 16.166666666667, 0" fill="#ddd" fill-opacity="0.14133333333333" stroke="#000" stroke-opacity="0.02" transform="translate(16.166666666667, 28.001488055697) rotate(0, 16.166666666667, 14.000744027848)" /><polyline points="16.166666666667, 0, 32.333333333333, 28.001488055697, 0, 28.001488055697, 16.166666666667, 0" fill="#ddd" fill-opacity="0.14133333333333" stroke="#000" stroke-opacity="0.02" transform="translate(32.333333333333, 28.001488055697) rotate(180, 16.166666666667, 14.000744027848)" /><polyline points="16.166666666667, 0, 32.333333333333, 28.001488055697, 0, 28.001488055697, 16.166666666667, 0" fill="#ddd" fill-opacity="0.124" stroke="#000" stroke-opacity="0.02" transform="translate(48.5, 28.001488055697) rotate(0, 16.166666666667, 14.000744027848)" /><polyline points="16.166666666667, 0, 32.333333333333, 28.001488055697, 0, 28.001488055697, 16.166666666667, 0" fill="#ddd" fill-opacity="0.10666666666667" stroke="#000" stroke-opacity="0.02" transform="translate(64.666666666667, 28.001488055697) rotate(180, 16.166666666667, 14.000744027848)" /><polyline points="16.166666666667, 0, 32.333333333333, 28.001488055697, 0, 28.001488055697, 16.166666666667, 0" fill="#ddd" fill-opacity="0.02" stroke="#000" stroke-opacity="0.02" transform="translate(-16.166666666667, 56.002976111394) rotate(180, 16.166666666667, 14.000744027848)" /><polyline points="16.166666666667, 0, 32.333333333333, 28.001488055697, 0, 28.001488055697, 16.166666666667, 0" fill="#ddd" fill-opacity="0.02" stroke="#000" stroke-opacity="0.02" transform="translate(80.833333333333, 56.002976111394) rotate(180, 16.166666666667, 14.000744027848)" /><polyline points="16.166666666667, 0, 32.333333333333, 28.001488055697, 0, 28.001488055697, 16.166666666667, 0" fill="#222" fill-opacity="0.11533333333333" stroke="#000" stroke-opacity="0.02" transform="translate(0, 56.002976111394) rotate(0, 16.166666666667, 14.000744027848)" /><polyline points="16.166666666667, 0, 32.333333333333, 28.001488055697, 0, 28.001488055697, 16.166666666667, 0" fill="#222" fill-opacity="0.11533333333333" stroke="#000" stroke-opacity="0.02" transform="translate(16.166666666667, 56.002976111394) rotate(180, 16.166666666667, 14.000744027848)" /><polyline points="16.166666666667, 0, 32.333333333333, 28.001488055697, 0, 28.001488055697, 16.166666666667, 0" fill="#222" fill-opacity="0.15" stroke="#000" stroke-opacity="0.02" transform="translate(32.333333333333, 56.002976111394) rotate(0, 16.166666666667, 14.000744027848)" /><polyline points="16.166666666667, 0, 32.333333333333, 28.001488055697, 0, 28.001488055697, 16.166666666667, 0" fill="#222" fill-opacity="0.080666666666667" stroke="#000" stroke-opacity="0.02" transform="translate(48.5, 56.002976111394) rotate(180, 16.166666666667, 14.000744027848)" /><polyline points="16.166666666667, 0, 32.333333333333, 28.001488055697, 0, 28.001488055697, 16.166666666667, 0" fill="#222" fill-opacity="0.028666666666667" stroke="#000" stroke-opacity="0.02" transform="translate(64.666666666667, 56.002976111394) rotate(0, 16.166666666667, 14.000744027848)" /><polyline points="16.166666666667, 0, 32.333333333333, 28.001488055697, 0, 28.001488055697, 16.166666666667, 0" fill="#ddd" fill-opacity="0.14133333333333" stroke="#000" stroke-opacity="0.02" transform="translate(-16.166666666667, 84.004464167091) rotate(0, 16.166666666667, 14.000744027848)" /><polyline points="16.166666666667, 0, 32.333333333333, 28.001488055697, 0, 28.001488055697, 16.166666666667, 0" fill="#ddd" fill-opacity="0.14133333333333" stroke="#000" stroke-opacity="0.02" transform="translate(80.833333333333, 84.004464167091) rotate(0, 16.166666666667, 14.000744027848)" /><polyline points="16.166666666667, 0, 32.333333333333, 28.001488055697, 0, 28.001488055697, 16.166666666667, 0" fill="#ddd" fill-opacity="0.14133333333333" stroke="#000" stroke-opacity="0.02" transform="translate(0, 84.004464167091) rotate(180, 16.166666666667, 14.000744027848)" /><polyline points="16.166666666667, 0, 32.333333333333, 28.001488055697, 0, 28.001488055697, 16.166666666667, 0" fill="#ddd" fill-opacity="0.089333333333333" stroke="#000" stroke-opacity="0.02" transform="translate(16.166666666667, 84.004464167091) rotate(0, 16.166666666667, 14.000744027848)" /><polyline points="16.166666666667, 0, 32.333333333333, 28.001488055697, 0, 28.001488055697, 16.166666666667, 0" fill="#ddd" fill-opacity="0.072" stroke="#000" stroke-opacity="0.02" transform="translate(32.333333333333, 84.004464167091) rotate(180, 16.166666666667, 14.000744027848)" /><polyline points="16.166666666667, 0, 32.333333333333, 28.001488055697, 0, 28.001488055697, 16.166666666667, 0" fill="#222" fill-opacity="0.13266666666667" stroke="#000" stroke-opacity="0.02" transform="translate(48.5, 84.004464167091) rotate(0, 16.166666666667, 14.000744027848)" /><polyline points="16.166666666667, 0, 32.333333333333, 28.001488055697, 0, 28.001488055697, 16.166666666667, 0" fill="#222" fill-opacity="0.063333333333333" stroke="#000" stroke-opacity="0.02" transform="translate(64.666666666667, 84.004464167091) rotate(180, 16.166666666667, 14.000744027848)" /><polyline points="16.166666666667, 0, 32.333333333333, 28.001488055697, 0, 28.001488055697, 16.166666666667, 0" fill="#222" fill-opacity="0.063333333333333" stroke="#000" stroke-opacity="0.02" transform="translate(-16.166666666667, 112.00595222279) rotate(180, 16.166666666667, 14.000744027848)" /><polyline points="16.166666666667, 0, 32.333333333333, 28.001488055697, 0, 28.001488055697, 16.166666666667, 0" fill="#222" fill-opacity="0.063333333333333" stroke="#000" stroke-opacity="0.02" transform="translate(80.833333333333, 112.00595222279) rotate(180, 16.166666666667, 14.000744027848)" /><polyline points="16.166666666667, 0, 32.333333333333, 28.001488055697, 0, 28.001488055697, 16.166666666667, 0" fill="#222" fill-opacity="0.046" stroke="#000" stroke-opacity="0.02" transform="translate(0, 112.00595222279) rotate(0, 16.166666666667, 14.000744027848)" /><polyline points="16.166666666667, 0, 32.333333333333, 28.001488055697, 0, 28.001488055697, 16.166666666667, 0" fill="#222" fill-opacity="0.028666666666667" stroke="#000" stroke-opacity="0.02" transform="translate(16.166666666667, 112.00595222279) rotate(180, 16.166666666667, 14.000744027848)" /><polyline points="16.166666666667, 0, 32.333333333333, 28.001488055697, 0, 28.001488055697, 16.166666666667, 0" fill="#ddd" fill-opacity="0.10666666666667" stroke="#000" stroke-opacity="0.02" transform="translate(32.333333333333, 112.00595222279) rotate(0, 16.166666666667, 14.000744027848)" /><polyline points="16.166666666667, 0, 32.333333333333, 28.001488055697, 0, 28.001488055697, 16.166666666667, 0" fill="#ddd" fill-opacity="0.037333333333333" stroke="#000" stroke-opacity="0.02" transform="translate(48.5, 112.00595222279) rotate(180, 16.166666666667, 14.000744027848)" /><polyline points="16.166666666667, 0, 32.333333333333, 28.001488055697, 0, 28.001488055697, 16.166666666667, 0" fill="#222" fill-opacity="0.15" stroke="#000" stroke-opacity="0.02" transform="translate(64.666666666667, 112.00595222279) rotate(0, 16.166666666667, 14.000744027848)" /><polyline points="16.166666666667, 0, 32.333333333333, 28.001488055697, 0, 28.001488055697, 16.166666666667, 0" fill="#ddd" fill-opacity="0.14133333333333" stroke="#000" stroke-opacity="0.02" transform="translate(-16.166666666667, 140.00744027848) rotate(0, 16.166666666667, 14.000744027848)" /><polyline points="16.166666666667, 0, 32.333333333333, 28.001488055697, 0, 28.001488055697, 16.166666666667, 0" fill="#ddd" fill-opacity="0.14133333333333" stroke="#000" stroke-opacity="0.02" transform="translate(80.833333333333, 140.00744027848) rotate(0, 16.166666666667, 14.000744027848)" /><polyline points="16.166666666667, 0, 32.333333333333, 28.001488055697, 0, 28.001488055697, 16.166666666667, 0" fill="#222" fill-opacity="0.028666666666667" stroke="#000" stroke-opacity="0.02" transform="translate(0, 140.00744027848) rotate(180, 16.166666666667, 14.000744027848)" /><polyline points="16.166666666667, 0, 32.333333333333, 28.001488055697, 0, 28.001488055697, 16.166666666667, 0" fill="#ddd" fill-opacity="0.124" stroke="#000" stroke-opacity="0.02" transform="translate(16.166666666667, 140.00744027848) rotate(0, 16.166666666667, 14.000744027848)" /><polyline points="16.166666666667, 0, 32.333333333333, 28.001488055697, 0, 28.001488055697, 16.166666666667, 0" fill="#222" fill-opacity="0.11533333333333" stroke="#000" stroke-opacity="0.02" transform="translate(32.333333333333, 140.00744027848) rotate(180, 16.166666666667, 14.000744027848)" /><polyline points="16.166666666667, 0, 32.333333333333, 28.001488055697, 0, 28.001488055697, 16.166666666667, 0" fill="#ddd" fill-opacity="0.054666666666667" stroke="#000" stroke-opacity="0.02" transform="translate(48.5, 140.00744027848) rotate(0, 16.166666666667, 14.000744027848)" /><polyline points="16.166666666667, 0, 32.333333333333, 28.001488055697, 0, 28.001488055697, 16.166666666667, 0" fill="#ddd" fill-opacity="0.14133333333333" stroke="#000" stroke-opacity="0.02" transform="translate(64.666666666667, 140.00744027848) rotate(180, 16.166666666667, 14.000744027848)" /></svg>